<?xml version="1.0" standalone="no"?>
<!DOCTYPE svg PUBLIC "-//W3C//DTD SVG 20010904//EN"
 "http://www.w3.org/TR/2001/REC-SVG-20010904/DTD/svg10.dtd">
<svg version="1.0" xmlns="http://www.w3.org/2000/svg"
 width="700.000000pt" height="700.000000pt" viewBox="0 0 700.000000 700.000000"
 preserveAspectRatio="xMidYMid meet">
<metadata>
Created by potrace 1.14, written by Peter Selinger 2001-2017
</metadata>
<g transform="translate(0.000000,700.000000) scale(0.100000,-0.100000)"
fill="#000000" stroke="none">
<path d="M1362 6981 c-79 -27 -132 -77 -170 -160 -25 -54 -25 -55 -25 -375
l-1 -321 -200 -1 c-168 -1 -215 -5 -289 -23 -243 -59 -443 -210 -570 -432 -29
-50 -47 -98 -80 -204 l-22 -70 -2 -2315 -1 -2315 23 -92 c82 -321 307 -551
632 -645 l78 -23 2765 0 c2598 0 2769 1 2828 17 317 88 542 303 639 613 l28
90 2 2300 c1 1345 -2 2326 -7 2361 -43 290 -254 557 -532 672 -122 51 -210 64
-428 66 l-195 2 -2 309 c-1 171 -4 317 -6 325 -16 63 -23 80 -48 116 -32 47
-86 87 -148 109 -34 12 -85 14 -250 12 -194 -2 -209 -3 -255 -26 -63 -31 -108
-77 -138 -141 -28 -59 -29 -65 -31 -450 l-2 -255 -1455 0 -1455 0 -2 313 c-1
206 -6 326 -14 350 -19 60 -67 128 -110 157 -74 48 -103 53 -310 54 -164 1
-202 -2 -247 -18z m5034 -2911 l20 0 0 -1622 c-1 -1354 -4 -1630 -15 -1663
-30 -86 -90 -148 -181 -186 -30 -12 -405 -14 -2725 -14 l-2690 0 -48 23 c-62
31 -123 93 -150 151 l-21 46 -1 1632 -2 1632 136 3 c95 2 5429 0 5677 -2z"/>
</g>
</svg>
